<svg xmlns="http://www.w3.org/2000/svg"  viewBox="0 0 64 64" width="64px" height="64px"><linearGradient id="BRw~w3EY5YObhv7OpM9IDa" x1="31.5" x2="31.5" y1="7" y2="58.712" gradientUnits="userSpaceOnUse" spreadMethod="reflect"><stop offset="0" stop-color="#1a6dff"/><stop offset="1" stop-color="#c822ff"/></linearGradient><path fill="url(#BRw~w3EY5YObhv7OpM9IDa)" d="M49,11H33v2h16c2.76,0,5,2.24,5,5v20H24.81L31,29.5V7H17v22.5l6.25,8.58L29.42,48h-2.8 L19,54.55V48h-5c-2.76,0-5-2.24-5-5V18c0-2.76,2.24-5,5-5h1v-2h-1c-3.86,0-7,3.14-7,7v25c0,3.86,3.14,7,7,7h3v9l10.38-9H49 c3.86,0,7-3.14,7-7V18C56,14.14,52.86,11,49,11z M19,9h10v17.61l-5-1.66l-5,1.66V9z M21.29,32L19,28.85v-0.13l5-1.67l5,1.67v0.13 L26.71,32H21.29z M54,43c0,2.76-2.24,5-5,5H31.78l-4.98-8H54V43z"/><linearGradient id="BRw~w3EY5YObhv7OpM9IDb" x1="24" x2="24" y1="11" y2="23.84" gradientUnits="userSpaceOnUse" spreadMethod="reflect"><stop offset="0" stop-color="#6dc7ff"/><stop offset="1" stop-color="#e6abff"/></linearGradient><path fill="url(#BRw~w3EY5YObhv7OpM9IDb)" d="M27 11L27 23.84 24.63 23.05 24 22.84 23.37 23.05 21 23.84 21 11z"/></svg>